<svg xmlns="http://www.w3.org/2000/svg" viewBox="0 0 519.02 523.61"><defs><style>.cls-1{fill:#87b62a;}.cls-2{fill:#010101;}</style></defs><g id="Camada_2" data-name="Camada 2"><g id="Camada_1-2" data-name="Camada 1"><path class="cls-1" d="M402.8,0c2.38,1.26,4.77,3.63,7.13,3.59,18.17-.29,33.59,7.78,48.42,16.52,9.59,5.66,19.07,12.54,26.33,20.85a174.37,174.37,0,0,1,24,35.28c6,11.8,10.35,24.7,10.33,38.58q-.21,143.7,0,287.41a107.32,107.32,0,0,1-14.93,55.65c-14.65,25-34.37,44.68-61.43,55.76-14,5.75-28.33,10.06-44.26,10-94.25-.58-188.51-.33-282.77-.23-17.33,0-32.53-6.46-47.81-13.68-20.92-9.9-34.92-26.9-48.94-44.34C10.7,455.24,7.63,443.44,3.93,431.62,3.38,429.85,1.35,428.53,0,427V96c1.31-1.79,3-3.41,3.85-5.4C11.12,73,19.6,56.1,32.54,41.88,44.76,28.46,60.13,19.56,76.41,12.14c9.5-4.33,19.08-8.51,30-8.47,2.19,0,4.39-2.38,6.58-3.67ZM112.6,275.63c1.77,2.14,2.67,3.92,4.1,4.86,16.53,10.71,33.17,21.26,49.71,31.95,2.6,1.68,4.59,1.71,7.11-.27,20.94-16.44,42-32.76,63-49.16,7.73-6.05,11.27-14.33,11.68-23.89s.5-19.32.52-29c.06-24.16,0-48.32,0-72.48,0-4.54-.18-8.63-5.09-11.45-16.92-9.73-33.59-19.92-50.41-29.86A79.8,79.8,0,0,0,185.63,93v8q.08,55.23.18,110.47c0,10.41-3.67,19.09-12.31,24.87-15.73,10.55-31.78,20.63-47.7,30.89C121.37,270,116.93,272.86,112.6,275.63Zm83.07,57.46c6.25,3.71,11.37,6.48,16.21,9.69,6.76,4.49,13.22,9.44,20,14,6.34,4.22,12.8,8.27,19.42,12a6.16,6.16,0,0,0,5.46-.13c3.36-2.4,6.19-5.54,9.32-8.27,8.63-7.55,17.42-14.92,25.93-22.58,9.5-8.54,19.09-17,28-26.13,5.76-5.86,10.67-12.68,10.73-21.61.13-17.16.38-34.32.18-51.48a9.36,9.36,0,0,0-3.69-6.74c-16.08-10-32.38-19.63-48.64-29.32-3.2-1.91-6.55-3.58-10.48-5.72,0,2.94,0,5.06,0,7.18.13,18-.15,36,.56,54,.46,11.82-4,20.53-13,27.6-17.79,14-35.47,28.07-53.2,42.11C200.57,329.14,198.72,330.64,195.67,333.09Zm210.25,45.82c-2.2-1.67-3.45-2.73-4.8-3.64-18.51-12.39-37.12-24.64-55.51-37.21-7.57-5.18-7.19-3.91-12.73,1.31-15.85,14.93-31.47,30.1-47.2,45.15-3.78,3.61-3.79,4.41.7,7.4,19.25,12.81,38.54,25.55,57.75,38.42,3.48,2.33,6,2.21,9.11-.9,10-10,20.27-19.63,30.46-29.39C390.87,393.2,398.07,386.38,405.92,378.91Z"/><path class="cls-2" d="M112.6,275.63c4.33-2.77,8.77-5.6,13.2-8.46,15.92-10.26,32-20.34,47.7-30.89,8.64-5.78,12.34-14.46,12.31-24.87q-.18-55.24-.18-110.47V93a79.8,79.8,0,0,1,7.51,3.38c16.82,9.94,33.49,20.13,50.41,29.86,4.91,2.82,5.09,6.91,5.09,11.45,0,24.16.1,48.32,0,72.48,0,9.66-.1,19.33-.52,29S244.21,257,236.48,263c-21,16.4-42,32.72-63,49.16-2.52,2-4.51,1.95-7.11.27-16.54-10.69-33.18-21.24-49.71-31.95C115.27,279.55,114.37,277.77,112.6,275.63Z"/><path class="cls-2" d="M195.67,333.09c3.05-2.45,4.9-3.95,6.77-5.43,17.73-14,35.41-28.14,53.2-42.11,9-7.07,13.5-15.78,13-27.6-.71-18-.43-36-.56-54,0-2.12,0-4.24,0-7.18,3.93,2.14,7.28,3.81,10.48,5.72,16.26,9.69,32.56,19.33,48.64,29.32a9.36,9.36,0,0,1,3.69,6.74c.2,17.16-.05,34.32-.18,51.48-.06,8.93-5,15.75-10.73,21.61-8.95,9.1-18.54,17.59-28,26.13-8.51,7.66-17.3,15-25.93,22.58-3.13,2.73-6,5.87-9.32,8.27a6.16,6.16,0,0,1-5.46.13c-6.62-3.78-13.08-7.83-19.42-12-6.75-4.51-13.21-9.46-20-14C207,339.57,201.92,336.8,195.67,333.09Z"/><path class="cls-2" d="M405.92,378.91c-7.85,7.47-15.05,14.29-22.22,21.14-10.19,9.76-20.48,19.42-30.46,29.39-3.12,3.11-5.63,3.23-9.11.9-19.21-12.87-38.5-25.61-57.75-38.42-4.49-3-4.48-3.79-.7-7.4,15.73-15,31.35-30.22,47.2-45.15,5.54-5.22,5.16-6.49,12.73-1.31,18.39,12.57,37,24.82,55.51,37.21C402.47,376.18,403.72,377.24,405.92,378.91Z"/></g></g></svg>