<?xml version="1.0" encoding="utf-8"?>
<!-- Generator: Adobe Illustrator 25.3.1, SVG Export Plug-In . SVG Version: 6.00 Build 0)  -->
<svg version="1.1" id="Camada_1" xmlns="http://www.w3.org/2000/svg" xmlns:xlink="http://www.w3.org/1999/xlink" x="0px" y="0px"
	 viewBox="0 0 1827.4 523.6" style="enable-background:new 0 0 1827.4 523.6;" xml:space="preserve">
<style type="text/css">
	.st0{fill:#87B62A;}
	.st1{fill:#010101;}
</style>
<g>
	<path class="st0" d="M402.8,0c2.4,1.3,4.8,3.6,7.1,3.6c18.2-0.3,33.6,7.8,48.4,16.5c9.6,5.7,19.1,12.5,26.3,20.8
		c9.4,10.7,17.5,22.6,24,35.3c6,11.8,10.4,24.7,10.3,38.6c-0.1,95.8-0.1,191.6,0,287.4c0.2,19.6-5,38.8-14.9,55.6
		c-14.6,25-34.4,44.7-61.4,55.8c-14,5.8-28.3,10.1-44.3,10c-94.2-0.6-188.5-0.3-282.8-0.2c-17.3,0-32.5-6.5-47.8-13.7
		c-20.9-9.9-34.9-26.9-48.9-44.3c-8.2-10.2-11.2-22-14.9-33.8c-0.5-1.8-2.6-3.1-3.9-4.6V96c1.3-1.8,3-3.4,3.8-5.4
		C11.1,73,19.6,56.1,32.5,41.9c12.2-13.4,27.6-22.3,43.9-29.7c9.5-4.3,19.1-8.5,30-8.5c2.2,0,4.4-2.4,6.6-3.7H402.8z M112.6,275.6
		c1.8,2.1,2.7,3.9,4.1,4.9c16.5,10.7,33.2,21.3,49.7,32c2.6,1.7,4.6,1.7,7.1-0.3c20.9-16.4,42-32.8,63-49.2
		c7.7-6,11.3-14.3,11.7-23.9s0.5-19.3,0.5-29c0.1-24.2,0-48.3,0-72.5c0-4.5-0.2-8.6-5.1-11.5c-16.9-9.7-33.6-19.9-50.4-29.9
		c-2.5-1.2-5-2.4-7.6-3.3v8c0.1,36.8,0.1,73.6,0.2,110.5c0,10.4-3.7,19.1-12.3,24.9c-15.7,10.6-31.8,20.6-47.7,30.9
		C121.4,270,116.9,272.8,112.6,275.6z M195.7,333.1c6.2,3.7,11.4,6.5,16.2,9.7c6.8,4.5,13.2,9.4,20,14c6.3,4.2,12.8,8.3,19.4,12
		c1.7,0.8,3.8,0.8,5.5-0.1c3.4-2.4,6.2-5.5,9.3-8.3c8.6-7.5,17.4-14.9,25.9-22.6c9.5-8.5,19.1-17,28-26.1
		c5.8-5.9,10.7-12.7,10.7-21.6c0.1-17.2,0.4-34.3,0.2-51.5c-0.2-2.7-1.6-5.1-3.7-6.7c-16.1-10-32.4-19.6-48.6-29.3
		c-3.2-1.9-6.5-3.6-10.5-5.7c0,2.9,0,5.1,0,7.2c0.1,18-0.1,36,0.6,54c0.5,11.8-4,20.5-13,27.6c-17.8,14-35.5,28.1-53.2,42.1
		C200.6,329.1,198.7,330.6,195.7,333.1z M405.9,378.9c-2.2-1.7-3.5-2.7-4.8-3.6c-18.5-12.4-37.1-24.6-55.5-37.2
		c-7.6-5.2-7.2-3.9-12.7,1.3c-15.9,14.9-31.5,30.1-47.2,45.1c-3.8,3.6-3.8,4.4,0.7,7.4c19.2,12.8,38.5,25.5,57.8,38.4
		c3.5,2.3,6,2.2,9.1-0.9c10-10,20.3-19.6,30.5-29.4C390.9,393.2,398.1,386.4,405.9,378.9L405.9,378.9z"/>
	<path class="st1" d="M112.6,275.6c4.3-2.8,8.8-5.6,13.2-8.5c15.9-10.3,32-20.3,47.7-30.9c8.6-5.8,12.3-14.5,12.3-24.9
		c-0.1-36.8-0.2-73.7-0.2-110.5V93c2.6,1,5.1,2.1,7.5,3.4c16.8,9.9,33.5,20.1,50.4,29.9c4.9,2.8,5.1,6.9,5.1,11.5
		c0,24.2,0.1,48.3,0,72.5c0,9.7-0.1,19.3-0.5,29s-3.9,17.8-11.6,23.8c-21,16.4-42,32.7-63,49.2c-2.5,2-4.5,2-7.1,0.3
		c-16.5-10.7-33.2-21.2-49.7-32C115.3,279.5,114.4,277.8,112.6,275.6z"/>
	<path class="st1" d="M195.7,333.1c3.1-2.5,4.9-4,6.8-5.4c17.7-14,35.4-28.1,53.2-42.1c9-7.1,13.5-15.8,13-27.6
		c-0.7-18-0.4-36-0.6-54c0-2.1,0-4.2,0-7.2c3.9,2.1,7.3,3.8,10.5,5.7c16.3,9.7,32.6,19.3,48.6,29.3c2.1,1.6,3.5,4.1,3.7,6.7
		c0.2,17.2,0,34.3-0.2,51.5c-0.1,8.9-5,15.8-10.7,21.6c-9,9.1-18.5,17.6-28,26.1c-8.5,7.7-17.3,15-25.9,22.6c-3.1,2.7-6,5.9-9.3,8.3
		c-1.7,0.9-3.7,0.9-5.5,0.1c-6.6-3.8-13.1-7.8-19.4-12c-6.8-4.5-13.2-9.5-20-14C207,339.6,201.9,336.8,195.7,333.1z"/>
	<path class="st1" d="M405.9,378.9c-7.9,7.5-15,14.3-22.2,21.1c-10.2,9.8-20.5,19.4-30.5,29.4c-3.1,3.1-5.6,3.2-9.1,0.9
		c-19.2-12.9-38.5-25.6-57.8-38.4c-4.5-3-4.5-3.8-0.7-7.4c15.7-15,31.4-30.2,47.2-45.1c5.5-5.2,5.2-6.5,12.7-1.3
		c18.4,12.6,37,24.8,55.5,37.2C402.5,376.2,403.7,377.2,405.9,378.9z"/>
</g>
<g>
	<path d="M767.5,449.3H657l62-357.9h119.1l34.8,215.9c1.9,12.9,2.9,29.5,2.9,41.9l4.8,0.5c0-12.9,1.4-29.5,3.8-41.9l41-216.4h114.4
		l62,357.9H999.1l-24.8-113.9c-2.9-12.4-4.8-29.1-4.8-41.9h-4.8c0,12.9-1.9,29.5-4.8,41.9l-24.3,113.4H821.9l-27.2-113.4
		c-2.9-12.4-5.2-29.1-5.7-41.9l-4.8,0.5c0.5,12.4,0,29.1-1.4,41.9L767.5,449.3z"/>
	<path d="M1164,65.2c31.5,0,56.7,25.3,56.7,56.2c0,31.9-25.3,57.2-56.7,57.2s-56.7-25.3-56.7-57.2
		C1107.3,90.5,1132.6,65.2,1164,65.2z M1113,197.2h101.5v251.6H1113V197.2z"/>
	<path d="M1423.3,183.4c63.4,0,73.9,48.6,73.9,85.8v179.7h-101.5V330.7c0-46.2,0.5-58.6-15.7-58.6c-12.4,0-31.5,7.1-33.8,73.4v103.4
		h-107.2V197.2h107.2v4.8c0,13.8,3.3,22.9-21.4,94.4l4.3,1.4c24.8-71.5,25.7-80.5,35.3-91C1377.5,192,1396.6,183.4,1423.3,183.4z"/>
	<path d="M1655.8,354c11,0,25.3-8.1,38.1-15.2l1.9,97.2c-26.2,16.2-51,22.4-72.4,22.4c-27.2,0-49.6-10-63.9-22.4
		c-30-25.7-25.3-61.5-25.3-102.5V232h-21.9v-34.8c46.2,0,114.4-84.3,114.4-105.8h9.1v105.8h63.9V232h-63.9l0.5,88.2
		C1636.8,345.4,1644.4,354,1655.8,354z"/>
	<path d="M1779.3,358.3c27.2,0,48.1,21.9,48.1,49.6c0,26.7-21,48.6-48.1,48.6c-27.6,0-48.6-21.9-48.6-48.6
		C1730.6,380.2,1751.6,358.3,1779.3,358.3z"/>
</g>
</svg>
